<svg width="14" height="14" viewBox="0 0 14 14" fill="none" xmlns="http://www.w3.org/2000/svg">
<mask id="mask0_918_179" style="mask-type:luminance" maskUnits="userSpaceOnUse" x="0" y="0" width="14" height="14">
<path d="M13.5455 0.834473H0.45459V13.9254H13.5455V0.834473Z" fill="white"/>
</mask>
<g mask="url(#mask0_918_179)">
<path d="M11.5366 3.21728C10.7023 2.83445 9.80753 2.55238 8.87201 2.39081C8.85498 2.3877 8.83796 2.39549 8.82919 2.41106C8.7141 2.61574 8.58665 2.88272 8.49739 3.09258C7.4912 2.94194 6.49016 2.94194 5.50461 3.09258C5.41532 2.87807 5.28324 2.61574 5.16764 2.41106C5.15887 2.396 5.14184 2.38821 5.12482 2.39081C4.18984 2.55184 3.29511 2.83391 2.4602 3.21728C2.45297 3.2204 2.44678 3.22559 2.44266 3.23234C0.745549 5.76781 0.280618 8.24097 0.508686 10.6834C0.509709 10.6954 0.516433 10.7068 0.525714 10.7141C1.64542 11.5364 2.73007 12.0356 3.79455 12.3665C3.81158 12.3717 3.82963 12.3655 3.84048 12.3514C4.09227 12.0076 4.31673 11.645 4.50919 11.2637C4.52054 11.2414 4.5097 11.2149 4.48648 11.206C4.13044 11.071 3.79144 10.9063 3.46531 10.7193C3.43952 10.7043 3.43744 10.6674 3.4612 10.6497C3.52982 10.5983 3.59847 10.5448 3.664 10.4907C3.67587 10.4809 3.69238 10.4788 3.70632 10.485C5.84873 11.4632 8.16815 11.4632 10.2853 10.485C10.2992 10.4783 10.3157 10.4804 10.3281 10.4902C10.3937 10.5442 10.4623 10.5983 10.5314 10.6497C10.5551 10.6673 10.5536 10.7042 10.5278 10.7193C10.2017 10.9099 9.86268 11.071 9.50613 11.2055C9.48291 11.2143 9.47258 11.2413 9.48396 11.2637C9.68056 11.6444 9.90502 12.007 10.1522 12.3509C10.1625 12.3654 10.1811 12.3717 10.1981 12.3665C11.2677 12.0356 12.3524 11.5364 13.4721 10.7141C13.4819 10.7068 13.4881 10.6959 13.4891 10.684C13.7621 7.86018 13.0319 5.4073 11.5536 3.23285C11.55 3.22559 11.5438 3.2204 11.5366 3.21728ZM4.82917 9.19622C4.18416 9.19622 3.65268 8.60406 3.65268 7.8768C3.65268 7.14956 4.17383 6.55738 4.82917 6.55738C5.48962 6.55738 6.01597 7.15475 6.00564 7.8768C6.00564 8.60406 5.48446 9.19622 4.82917 9.19622ZM9.17901 9.19622C8.53403 9.19622 8.00254 8.60406 8.00254 7.8768C8.00254 7.14956 8.5237 6.55738 9.17901 6.55738C9.83949 6.55738 10.3658 7.15475 10.3555 7.8768C10.3555 8.60406 9.83951 9.19622 9.17901 9.19622Z" fill="#377DF6"/>
</g>
</svg>
