<svg width="14" height="14" viewBox="0 0 14 14" fill="none" xmlns="http://www.w3.org/2000/svg">
<path d="M12.2372 12.6153V8.77968C12.2372 6.89459 11.8314 5.45459 9.63215 5.45459C8.57178 5.45459 7.86488 6.03059 7.57688 6.58041H7.55069V5.62477H5.46924V12.6153H7.64233V9.14623C7.64233 8.22986 7.81251 7.35277 8.93833 7.35277C10.0511 7.35277 10.0641 8.38695 10.0641 9.19859V12.6022H12.2372V12.6153Z" fill="#377DF6"/>
<path d="M1.93408 5.62549H4.10717V12.616H1.93408V5.62549Z" fill="#377DF6"/>
<path d="M3.02089 2.14307C2.32707 2.14307 1.76416 2.70598 1.76416 3.39979C1.76416 4.09361 2.32707 4.66961 3.02089 4.66961C3.71471 4.66961 4.27761 4.09361 4.27761 3.39979C4.27761 2.70598 3.71471 2.14307 3.02089 2.14307Z" fill="#377DF6"/>
</svg>
