<svg width="14" height="14" viewBox="0 0 14 14" fill="none" xmlns="http://www.w3.org/2000/svg">
<mask id="mask0_918_186" style="mask-type:luminance" maskUnits="userSpaceOnUse" x="0" y="0" width="14" height="14">
<path d="M13.5454 0.834473H0.454468V13.9254H13.5454V0.834473Z" fill="white"/>
</mask>
<g mask="url(#mask0_918_186)">
<path d="M5.59099 9.11515L5.37444 12.161C5.68426 12.161 5.81844 12.0279 5.97935 11.8681L7.4319 10.4799L10.4417 12.6841C10.9937 12.9917 11.3826 12.8297 11.5315 12.1762L13.5072 2.91879C13.6823 2.10279 13.2126 1.78315 12.6748 1.98333L1.06208 6.42933C0.269534 6.73697 0.281534 7.17879 0.927352 7.37897L3.89626 8.30242L10.7924 3.98733C11.117 3.77242 11.4121 3.89133 11.1694 4.10624L5.59099 9.11515Z" fill="#377DF6"/>
</g>
</svg>
