<svg width="44" height="44" viewBox="0 0 44 44" fill="none" xmlns="http://www.w3.org/2000/svg">
<g clip-path="url(#clip0_885_177)">
<mask id="mask0_885_177" style="mask-type:luminance" maskUnits="userSpaceOnUse" x="0" y="0" width="44" height="44">
<path d="M44 0H0V44H44V0Z" fill="white"/>
</mask>
<g mask="url(#mask0_885_177)">
<path d="M29.4158 17.9711C27.2658 17.9711 25.5168 16.226 25.5168 14.081C25.5168 11.936 27.2658 10.1909 29.4158 10.1909C31.5658 10.1909 33.3147 11.936 33.3147 14.081C33.3147 16.226 31.5658 17.9711 29.4158 17.9711ZM29.4158 11.5915C28.0401 11.5915 26.9209 12.7081 26.9209 14.0807C26.9209 15.4532 28.0401 16.5699 29.4158 16.5699C30.7915 16.5699 31.9107 15.4532 31.9107 14.0807C31.9107 12.7081 30.7915 11.5915 29.4158 11.5915Z" fill="#377DF6" fill-opacity="0.4"/>
<path d="M43.4883 0.774473C43.4638 0.424603 43.1856 0.145344 42.8351 0.118732C37.609 -0.280462 27.9407 -0.00439787 21.9205 6.32202L21.918 6.32451C21.1019 7.19067 20.3504 8.17286 19.6535 9.21147C10.9067 12.3632 7.02515 18.1073 6.11002 21.0269C5.9766 21.4534 6.28602 21.9094 6.73312 21.9431L13.0989 22.4253C12.5744 23.8095 12.0968 25.2012 11.6735 26.594C11.5972 26.8445 11.6664 27.1163 11.8523 27.3008L16.1086 31.5202C16.2906 31.7004 16.5656 31.7696 16.8112 31.6958C18.2306 31.2722 19.6485 30.7928 21.0586 30.2669L21.5486 36.6267C21.5831 37.0713 22.0373 37.3796 22.4645 37.2483C25.1478 36.4223 31.0573 32.5478 34.3675 23.7932C35.4154 23.0999 36.4008 22.3512 37.2606 21.5368C43.5298 15.6174 43.8535 5.98776 43.4883 0.774473C43.8535 5.98776 43.4635 0.424248 43.4883 0.774473ZM42.1123 1.48699C42.2588 4.16638 42.19 7.84144 41.2677 11.4942L31.9979 2.30489C35.6954 1.37344 39.4098 1.32305 42.1123 1.48699ZM7.7916 20.6046C8.93063 18.102 12.1436 13.9578 18.3984 11.2305C17.3534 13.0345 16.4461 14.8963 15.6388 16.5538C14.9149 18.0342 14.2489 19.5355 13.6382 21.0478L7.7916 20.6046ZM22.8896 35.5728L22.44 29.735C23.953 29.1335 25.4547 28.4785 26.9351 27.7674C28.6142 26.9712 30.4995 26.0773 32.3176 25.0462C29.4935 31.2782 25.3671 34.454 22.8896 35.5728ZM36.2855 20.5106C33.6281 23.0278 29.7486 24.867 26.323 26.4911C23.2139 27.9856 20.0147 29.2389 16.8076 30.2193L13.1553 26.5982C14.1435 23.4224 15.4071 20.2541 16.9137 17.173C18.4729 13.9716 20.4132 9.98715 22.9496 7.29463C25.0757 5.06093 27.7136 3.64015 30.4402 2.75483L40.8199 13.0444C39.9339 15.7721 38.5146 18.4053 36.2855 20.5106Z" fill="#377DF6" fill-opacity="0.4"/>
<path d="M1.48512 43.5771C0.871952 43.5771 0.551533 42.816 0.975211 42.3785L10.6825 32.3508C11.317 31.6975 12.3382 32.6765 11.7023 33.3337L1.99502 43.361C1.85592 43.5048 1.6707 43.5771 1.48512 43.5771Z" fill="#377DF6" fill-opacity="0.4"/>
<path d="M8.31574 43.9999C7.71677 43.9999 7.38997 43.2678 7.78597 42.8225L14.0773 35.7577C14.684 35.0789 15.745 36.0142 15.1372 36.6973L8.84587 43.7621C8.70606 43.9197 8.51126 43.9999 8.31574 43.9999Z" fill="#377DF6" fill-opacity="0.4"/>
<path d="M1.05818 37.2285C0.459207 37.2285 0.132401 36.4964 0.528401 36.0511L6.82005 28.9863C7.42647 28.3071 8.48779 29.2432 7.87995 29.9259L1.58831 36.9907C1.44815 37.1483 1.2537 37.2285 1.05818 37.2285Z" fill="#377DF6" fill-opacity="0.4"/>
</g>
</g>
<defs>
<clipPath id="clip0_885_177">
<rect width="44" height="44" fill="white"/>
</clipPath>
</defs>
</svg>
