<svg width="40" height="42" viewBox="0 0 40 42" fill="none" xmlns="http://www.w3.org/2000/svg">
<path d="M30.9361 23.5569C28.1968 23.5569 25.7485 24.825 24.1461 26.8045L17.4781 22.9547C17.6856 22.2095 17.7971 21.4247 17.7971 20.6142C17.7971 19.8038 17.6856 19.0189 17.4781 18.2736L23.743 14.6566C24.0815 15.1475 24.4688 15.6024 24.8981 16.0137C24.9297 16.0506 24.9656 16.0842 25.0054 16.1143C26.564 17.5586 28.6485 18.4431 30.936 18.4431C33.2237 18.4431 35.3082 17.5585 36.8669 16.1139C36.9064 16.084 36.9421 16.0506 36.9735 16.014C38.6338 14.4233 39.6692 12.1852 39.6692 9.7097C39.6693 4.89428 35.7516 0.976562 30.9361 0.976562C26.1206 0.976562 22.2028 4.89428 22.2028 9.70979C22.2028 11.0541 22.5084 12.3284 23.0533 13.4671L16.9966 16.964C15.6117 13.9664 12.577 11.8809 9.06388 11.8809C4.24837 11.8809 0.330566 15.7987 0.330566 20.6142C0.330566 23.0897 1.36603 25.3277 3.02634 26.9184C3.05779 26.955 3.09346 26.9886 3.13307 27.0185C4.69172 28.4629 6.77631 29.3475 9.06396 29.3475C11.3514 29.3475 13.436 28.463 14.9946 27.0186C15.0344 26.9886 15.0702 26.955 15.1018 26.9181C15.8884 26.1643 16.5344 25.2652 16.9968 24.2644L23.3649 27.9411C22.626 29.2224 22.203 30.7078 22.203 32.2902C22.203 34.7655 23.2382 37.0035 24.8984 38.5942C24.9299 38.631 24.9658 38.6646 25.0056 38.6947C26.5641 40.139 28.6486 41.0234 30.9361 41.0234C33.2235 41.0234 35.3079 40.1391 36.8666 38.6947C36.9065 38.6645 36.9426 38.6308 36.9742 38.5937C38.6341 37.003 39.6693 34.7652 39.6693 32.2901C39.6693 27.4746 35.7516 23.5569 30.9361 23.5569ZM26.3054 15.4228C27.3296 13.8781 29.0573 12.9381 30.9341 12.9374C30.9348 12.9374 30.9354 12.9375 30.9361 12.9375C30.9368 12.9375 30.9374 12.9374 30.9381 12.9374C32.8147 12.9381 34.5425 13.878 35.5668 15.4227C34.3012 16.4506 32.6897 17.0681 30.9361 17.0681C29.1825 17.0681 27.571 16.4506 26.3054 15.4228ZM28.3118 8.93824C28.3118 7.49123 29.4891 6.31397 30.9361 6.31397C32.3831 6.31397 33.5603 7.49123 33.5603 8.93824C33.5603 10.3846 32.3841 11.5614 30.9381 11.5624C30.9374 11.5624 30.9368 11.5624 30.9361 11.5624C30.9354 11.5624 30.9348 11.5624 30.9341 11.5624C29.488 11.5613 28.3118 10.3846 28.3118 8.93824ZM30.9361 2.35156C34.9935 2.35156 38.2943 5.65242 38.2943 9.70979C38.2943 11.512 37.642 13.164 36.5625 14.4448C35.7749 13.3493 34.6945 12.5187 33.4609 12.037C34.36 11.303 34.9354 10.1867 34.9354 8.93824C34.9354 6.73309 33.1413 4.93897 30.9362 4.93897C28.731 4.93897 26.9369 6.73309 26.9369 8.93824C26.9369 10.1867 27.5123 11.303 28.4113 12.037C27.1777 12.5187 26.0974 13.3493 25.3098 14.4449C24.2302 13.1641 23.5779 11.5121 23.5779 9.70988C23.5778 5.65242 26.8787 2.35156 30.9361 2.35156ZM9.06388 13.2559C13.1212 13.2559 16.4221 16.5569 16.4221 20.6142C16.4221 22.4164 15.7698 24.0684 14.6903 25.3491C13.9027 24.2537 12.8224 23.4231 11.5886 22.9413C12.4878 22.2073 13.0632 21.091 13.0632 19.8426C13.0632 17.6374 11.269 15.8434 9.06388 15.8434C6.85872 15.8434 5.06461 17.6374 5.06461 19.8426C5.06461 21.091 5.63996 22.2074 6.53912 22.9413C5.3054 23.4231 4.22508 24.2537 3.43747 25.3492C2.35792 24.0685 1.70557 22.4165 1.70557 20.6142C1.70557 16.5569 5.00651 13.2559 9.06388 13.2559ZM6.43961 19.8425C6.43961 18.3955 7.61686 17.2183 9.06388 17.2183C10.5109 17.2183 11.6882 18.3955 11.6882 19.8425C11.6882 21.2895 10.5109 22.4668 9.06388 22.4668C7.61686 22.4668 6.43961 21.2895 6.43961 19.8425ZM4.43314 26.3271C5.45768 24.7819 7.18632 23.8418 9.06388 23.8418C10.9414 23.8418 12.6701 24.7819 13.6946 26.3271C12.429 27.3549 10.8175 27.9725 9.06388 27.9725C7.31024 27.9725 5.69874 27.3549 4.43314 26.3271ZM26.3054 38.0032C27.3296 36.4584 29.0573 35.5185 30.9341 35.5178C30.9348 35.5178 30.9354 35.5179 30.9361 35.5179C30.9368 35.5179 30.9374 35.5178 30.9381 35.5178C32.8147 35.5185 34.5425 36.4584 35.5667 38.0031C34.3012 39.0309 32.6896 39.6484 30.9361 39.6484C29.1825 39.6484 27.571 39.0309 26.3054 38.0032ZM28.3118 31.5185C28.3118 30.0715 29.4891 28.8942 30.9361 28.8942C32.3831 28.8942 33.5603 30.0715 33.5603 31.5185C33.5603 32.9648 32.3841 34.1416 30.9381 34.1427C30.9374 34.1427 30.9368 34.1427 30.9361 34.1427C30.9354 34.1427 30.9348 34.1427 30.9341 34.1427C29.488 34.1416 28.3118 32.9649 28.3118 31.5185ZM36.5624 37.0251C35.7748 35.9297 34.6944 35.099 33.4608 34.6172C34.3599 33.8832 34.9353 32.7669 34.9353 31.5185C34.9353 29.3133 33.1412 27.5192 30.9361 27.5192C28.7309 27.5192 26.9368 29.3133 26.9368 31.5185C26.9368 32.7669 27.5122 33.8832 28.4113 34.6172C27.1776 35.099 26.0973 35.9296 25.3097 37.0251C24.2301 35.7444 23.5778 34.0923 23.5778 32.2901C23.5778 28.2328 26.8787 24.9319 30.9361 24.9319C34.9935 24.9319 38.2943 28.2328 38.2943 32.2901C38.2943 34.0923 37.642 35.7444 36.5624 37.0251Z" fill="#377DF6" fill-opacity="0.4"/>
</svg>
