<svg width="44" height="44" viewBox="0 0 44 44" fill="none" xmlns="http://www.w3.org/2000/svg">
<path fill-rule="evenodd" clip-rule="evenodd" d="M38.4785 32.9579C38.4785 33.2797 38.2112 33.5471 37.8893 33.5471H32.7992C32.4723 33.5471 32.2099 33.2798 32.2099 32.9579C32.2099 32.631 32.4723 32.3686 32.7992 32.3686H37.8893C38.2112 32.3686 38.4785 32.631 38.4785 32.9579ZM38.4785 29.1205C38.4785 29.4423 38.2112 29.7097 37.8893 29.7097H32.7992C32.4723 29.7097 32.2099 29.4424 32.2099 29.1205C32.2099 28.7936 32.4723 28.5312 32.7992 28.5312H37.8893C38.2112 28.5312 38.4785 28.7936 38.4785 29.1205ZM38.4785 25.283C38.4785 25.6049 38.2112 25.8723 37.8893 25.8723H32.7992C32.4723 25.8723 32.2099 25.6049 32.2099 25.283C32.2099 24.9562 32.4723 24.6938 32.7992 24.6938H37.8893C38.2112 24.6938 38.4785 24.9562 38.4785 25.283ZM38.4785 21.4456C38.4785 21.7674 38.2112 22.0349 37.8893 22.0349H32.7992C32.4723 22.0349 32.2099 21.7675 32.2099 21.4456C32.2099 21.1188 32.4723 20.8564 32.7992 20.8564H37.8893C38.2112 20.8564 38.4785 21.1189 38.4785 21.4456ZM38.4785 17.6082C38.4785 17.93 38.2112 18.1925 37.8893 18.1925H32.7992C32.4723 18.1925 32.2099 17.9301 32.2099 17.6082C32.2099 17.2814 32.4723 17.019 32.7992 17.019H37.8893C38.2112 17.0191 38.4785 17.2815 38.4785 17.6082ZM38.4785 13.7708C38.4785 14.0926 38.2112 14.3551 37.8893 14.3551H32.7992C32.4723 14.3551 32.2099 14.0927 32.2099 13.7708C32.2099 13.444 32.4723 13.1815 32.7992 13.1815H37.8893C38.2112 13.1816 38.4785 13.4441 38.4785 13.7708ZM26.392 11.1465V7.43295C28.3181 7.69536 29.8481 9.22041 30.1106 11.1465H26.392ZM25.8027 6.21485C25.4809 6.21485 25.2184 6.4822 25.2184 6.8041V11.7358C25.2184 12.0626 25.4808 12.325 25.8027 12.325H30.7344C31.0613 12.325 31.3237 12.0626 31.3237 11.7358C31.3236 8.69064 28.8479 6.21485 25.8027 6.21485ZM22.7527 18.9451C24.9511 18.9451 26.7683 17.3111 27.0604 15.1919H22.7527C22.4308 15.1919 22.1683 14.9295 22.1683 14.6027V10.2998C20.0491 10.587 18.4102 12.4092 18.4102 14.6027C18.4101 16.9993 20.3561 18.9451 22.7527 18.9451ZM27.6843 14.0135H23.3418V9.67105C23.3418 9.34924 23.0794 9.0818 22.7526 9.0818C19.7123 9.0818 17.2366 11.5575 17.2366 14.6027C17.2366 17.6478 19.7124 20.1235 22.7526 20.1235C25.7977 20.1235 28.2734 17.6478 28.2734 14.6027C28.2735 14.2808 28.0111 14.0135 27.6843 14.0135ZM23.1388 33.5421H21.8019V26.1743H23.1388V33.5421ZM23.2528 25.0008H21.6831C21.0989 25.0008 20.6235 25.4762 20.6235 26.0604V33.661C20.6235 34.2452 21.0989 34.7206 21.6831 34.7206H23.2528C23.837 34.7206 24.3124 34.2452 24.3124 33.661V26.0604C24.3124 25.4761 23.837 25.0008 23.2528 25.0008ZM17.5733 33.5421H16.2364V28.4718H17.5733V33.5421ZM17.6922 27.2982H16.1226C15.5383 27.2982 15.063 27.7736 15.063 28.3529V33.6609C15.063 34.2451 15.5383 34.7205 16.1226 34.7205H17.6922C18.2765 34.7205 18.7518 34.2451 18.7518 33.6609V28.3529C18.7518 27.7736 18.2765 27.2982 17.6922 27.2982ZM12.0129 33.5421H10.676V30.7742H12.0129V33.5421ZM12.1317 29.5957H10.562C9.97779 29.5957 9.50241 30.0711 9.50241 30.6554V33.6609C9.50241 34.2451 9.97779 34.7205 10.562 34.7205H12.1317C12.716 34.7205 13.1864 34.2451 13.1864 33.6609V30.6554C13.1864 30.0711 12.716 29.5957 12.1317 29.5957ZM39.4639 39.2908C39.8797 39.2908 40.2115 38.9541 40.2115 38.5431V10.5178H36.3296C35.27 10.5178 34.4034 9.65618 34.4034 8.59657V4.70961H16.2464C15.8354 4.70961 15.4987 5.0463 15.4987 5.45726V22.3369H26.7287C27.9022 22.3369 28.8528 23.2925 28.8528 24.4661V35.9139H30.9374C31.2642 35.9139 31.5266 36.1763 31.5266 36.5031C31.5266 37.5875 31.1206 38.5729 30.462 39.2908H39.4639ZM25.9266 39.2908H6.27906C5.08578 39.2908 4.08064 38.3451 3.83794 37.0874H12.8248L13.3497 38.4193C13.4388 38.6471 13.6567 38.7907 13.8992 38.7907H20.2372C20.4798 38.7907 20.6977 38.6471 20.7818 38.4193L21.3066 37.0874H30.2936C30.0509 38.3451 29.0507 39.2908 27.8575 39.2908H25.9266ZM20.0442 37.0874L19.8363 37.6172H14.2955L14.0876 37.0874H20.0442ZM6.13544 24.4661V35.9139H27.6793V24.4661C27.6793 23.9412 27.2535 23.5105 26.7287 23.5105H7.08611C6.56127 23.5104 6.13544 23.9412 6.13544 24.4661ZM35.5819 5.54148L39.3847 9.34422H36.3297C35.9137 9.34422 35.582 9.00753 35.582 8.59657L35.5819 5.54148ZM41.2167 9.51749L35.4086 3.7094C35.2996 3.59553 35.1461 3.53613 34.9927 3.53613H16.2464C15.1868 3.53613 14.3202 4.39774 14.3202 5.45735V22.337H7.08611C5.91263 22.337 4.96187 23.2926 4.96187 24.4661V35.9139H3.19923C2.8724 35.9139 2.60999 36.1763 2.60999 36.5031C2.60999 38.6868 4.25391 40.4643 6.27906 40.4643H39.4639C40.5235 40.4643 41.39 39.6027 41.39 38.5431V9.93338C41.39 9.77498 41.3256 9.62644 41.2167 9.51749Z" fill="#377DF6" fill-opacity="0.4"/>
</svg>
