<svg width="44" height="44" viewBox="0 0 44 44" fill="none" xmlns="http://www.w3.org/2000/svg">
<path fill-rule="evenodd" clip-rule="evenodd" d="M29.1491 6.30702H22.5351V3.82675C22.5351 3.37039 22.1647 3 21.7083 3C21.252 3 20.8816 3.37039 20.8816 3.82675V6.30702H14.2675V3.82675C14.2675 3.37039 13.8972 3 13.4408 3C12.9844 3 12.614 3.37039 12.614 3.82675V6.30702H10.1338C7.8511 6.30702 6 8.15812 6 10.4408V36.8969C6 39.1796 7.8511 41.0307 10.1338 41.0307H33.2829C35.5656 41.0307 37.4167 39.1796 37.4167 36.8969C37.4167 30.5607 37.4167 16.777 37.4167 10.4408C37.4167 8.15812 35.5656 6.30702 33.2829 6.30702H30.8026V3.82675C30.8026 3.37039 30.4323 3 29.9759 3C29.5195 3 29.1491 3.37039 29.1491 3.82675V6.30702ZM30.8026 7.96053V10.4408C30.8026 10.8972 30.4323 11.2675 29.9759 11.2675C29.5195 11.2675 29.1491 10.8972 29.1491 10.4408V7.96053H22.5351V10.4408C22.5351 10.8972 22.1647 11.2675 21.7083 11.2675C21.252 11.2675 20.8816 10.8972 20.8816 10.4408V7.96053H14.2675V10.4408C14.2675 10.8972 13.8972 11.2675 13.4408 11.2675C12.9844 11.2675 12.614 10.8972 12.614 10.4408V7.96053H10.1338C8.76384 7.96053 7.65351 9.07086 7.65351 10.4408V36.8969C7.65351 38.2669 8.76384 39.3772 10.1338 39.3772H33.2829C34.6528 39.3772 35.7632 38.2669 35.7632 36.8969V10.4408C35.7632 9.07086 34.6528 7.96053 33.2829 7.96053H30.8026Z" fill="#377DF6" fill-opacity="0.4"/>
<path fill-rule="evenodd" clip-rule="evenodd" d="M11.2029 17.6396L12.8564 19.2931C13.1789 19.6163 13.703 19.6163 14.0255 19.2931L17.3325 15.9861C17.6549 15.6636 17.6549 15.1395 17.3325 14.817C17.0101 14.4946 16.4859 14.4946 16.1635 14.817L13.441 17.5395L12.372 16.4705C12.0495 16.1481 11.5254 16.1481 11.2029 16.4705C10.8805 16.793 10.8805 17.3171 11.2029 17.6396Z" fill="#377DF6" fill-opacity="0.4"/>
<path fill-rule="evenodd" clip-rule="evenodd" d="M11.2029 25.9071L12.8564 27.5607C13.1789 27.8839 13.703 27.8839 14.0255 27.5607L17.3325 24.2536C17.6549 23.9312 17.6549 23.407 17.3325 23.0846C17.0101 22.7622 16.4859 22.7622 16.1635 23.0846L13.441 25.8071L12.372 24.7381C12.0495 24.4157 11.5254 24.4157 11.2029 24.7381C10.8805 25.0605 10.8805 25.5847 11.2029 25.9071Z" fill="#377DF6" fill-opacity="0.4"/>
<path fill-rule="evenodd" clip-rule="evenodd" d="M11.2029 34.1742L12.8564 35.8277C13.1789 36.151 13.703 36.151 14.0255 35.8277L17.3325 32.5207C17.6549 32.1983 17.6549 31.6741 17.3325 31.3517C17.0101 31.0293 16.4859 31.0293 16.1635 31.3517L13.441 34.0742L12.372 33.0052C12.0495 32.6828 11.5254 32.6828 11.2029 33.0052C10.8805 33.3276 10.8805 33.8518 11.2029 34.1742Z" fill="#377DF6" fill-opacity="0.4"/>
<path fill-rule="evenodd" clip-rule="evenodd" d="M20.0548 17.8815H31.6294C32.0858 17.8815 32.4562 17.5112 32.4562 17.0548C32.4562 16.5984 32.0858 16.228 31.6294 16.228H20.0548C19.5985 16.228 19.2281 16.5984 19.2281 17.0548C19.2281 17.5112 19.5985 17.8815 20.0548 17.8815Z" fill="#377DF6" fill-opacity="0.4"/>
<path fill-rule="evenodd" clip-rule="evenodd" d="M20.0548 26.1491H31.6294C32.0858 26.1491 32.4562 25.7787 32.4562 25.3224C32.4562 24.866 32.0858 24.4956 31.6294 24.4956H20.0548C19.5985 24.4956 19.2281 24.866 19.2281 25.3224C19.2281 25.7787 19.5985 26.1491 20.0548 26.1491Z" fill="#377DF6" fill-opacity="0.4"/>
<path fill-rule="evenodd" clip-rule="evenodd" d="M20.0548 34.4167H31.6294C32.0858 34.4167 32.4562 34.0463 32.4562 33.5899C32.4562 33.1336 32.0858 32.7632 31.6294 32.7632H20.0548C19.5985 32.7632 19.2281 33.1336 19.2281 33.5899C19.2281 34.0463 19.5985 34.4167 20.0548 34.4167Z" fill="#377DF6" fill-opacity="0.4"/>
</svg>
