<svg width="39" height="43" viewBox="0 0 39 43" fill="none" xmlns="http://www.w3.org/2000/svg">
<g clip-path="url(#clip0_885_203)">
<path d="M22.6875 19.625H21.3125C21.1302 19.625 20.9553 19.5526 20.8264 19.4236C20.6974 19.2947 20.625 19.1198 20.625 18.9375H19.25C19.25 19.4845 19.4673 20.0091 19.8541 20.3959C20.2409 20.7827 20.7655 21 21.3125 21V21.6875H22.6875V21C23.2345 21 23.7591 20.7827 24.1459 20.3959C24.5327 20.0091 24.75 19.4845 24.75 18.9375C24.75 18.3905 24.5327 17.8659 24.1459 17.4791C23.7591 17.0923 23.2345 16.875 22.6875 16.875H21.3125C21.1302 16.875 20.9553 16.8026 20.8264 16.6736C20.6974 16.5447 20.625 16.3698 20.625 16.1875C20.625 16.0052 20.6974 15.8303 20.8264 15.7014C20.9553 15.5724 21.1302 15.5 21.3125 15.5H22.6875C22.8698 15.5 23.0447 15.5724 23.1736 15.7014C23.3026 15.8303 23.375 16.0052 23.375 16.1875H24.75C24.75 15.6405 24.5327 15.1159 24.1459 14.7291C23.7591 14.3423 23.2345 14.125 22.6875 14.125V13.4375H21.3125V14.125C20.7655 14.125 20.2409 14.3423 19.8541 14.7291C19.4673 15.1159 19.25 15.6405 19.25 16.1875C19.25 16.7345 19.4673 17.2591 19.8541 17.6459C20.2409 18.0327 20.7655 18.25 21.3125 18.25H22.6875C22.8698 18.25 23.0447 18.3224 23.1736 18.4514C23.3026 18.5803 23.375 18.7552 23.375 18.9375C23.375 19.1198 23.3026 19.2947 23.1736 19.4236C23.0447 19.5526 22.8698 19.625 22.6875 19.625Z" fill="#377DF6" fill-opacity="0.4"/>
<path d="M15.125 17.5625C15.125 18.9222 15.5282 20.2515 16.2836 21.382C17.0391 22.5126 18.1128 23.3938 19.3691 23.9142C20.6253 24.4345 22.0076 24.5707 23.3412 24.3054C24.6749 24.0401 25.8999 23.3853 26.8614 22.4239C27.8228 21.4624 28.4776 20.2374 28.7429 18.9037C29.0082 17.5701 28.872 16.1878 28.3517 14.9316C27.8313 13.6753 26.9501 12.6016 25.8195 11.8461C24.689 11.0907 23.3597 10.6875 22 10.6875C20.1773 10.6895 18.4297 11.4145 17.1409 12.7034C15.852 13.9922 15.127 15.7398 15.125 17.5625ZM22 12.0625C23.0878 12.0625 24.1512 12.3851 25.0556 12.9894C25.9601 13.5938 26.6651 14.4527 27.0813 15.4577C27.4976 16.4627 27.6065 17.5686 27.3943 18.6355C27.1821 19.7024 26.6583 20.6824 25.8891 21.4516C25.1199 22.2208 24.1399 22.7446 23.073 22.9568C22.0061 23.169 20.9002 23.0601 19.8952 22.6438C18.8902 22.2276 18.0313 21.5226 17.4269 20.6181C16.8226 19.7137 16.5 18.6503 16.5 17.5625C16.5016 16.1043 17.0816 14.7063 18.1127 13.6752C19.1438 12.6441 20.5418 12.0641 22 12.0625Z" fill="#377DF6" fill-opacity="0.4"/>
<path d="M38.5 21C38.4988 20.6082 38.4133 20.2212 38.2493 19.8654C38.0854 19.5095 37.8469 19.1931 37.5499 18.9375C37.974 18.572 38.2758 18.0852 38.4148 17.5428C38.5537 17.0004 38.5231 16.4285 38.3269 15.904C38.1308 15.3796 37.7786 14.9279 37.3178 14.6098C36.8571 14.2917 36.3099 14.1225 35.75 14.125H34.375V5.1875C34.3735 3.91159 33.866 2.68836 32.9638 1.78616C32.0616 0.883953 30.8384 0.376456 29.5625 0.375H14.4375C13.1616 0.376456 11.9383 0.883953 11.0361 1.78616C10.1339 2.68836 9.62643 3.91159 9.62498 5.1875V9.00725C9.2088 8.7598 8.73415 8.62785 8.24998 8.625H6.18748C6.00514 8.625 5.83027 8.69743 5.70134 8.82636C5.57241 8.95529 5.49998 9.13016 5.49998 9.3125V31.0279L0.888916 35.6389L1.86104 36.6111L6.67354 31.7986C6.80248 31.6697 6.87494 31.4948 6.87498 31.3125V10H8.24998C8.61465 10 8.96439 10.1449 9.22225 10.4027C9.48011 10.6606 9.62498 11.0103 9.62498 11.375V16.875C9.62502 16.9998 9.659 17.1221 9.72329 17.2291L10.4108 18.3799C11.2453 19.7688 11.6866 21.3583 11.6875 22.9786V23.9789C11.6876 25.2267 11.348 26.4509 10.705 27.5202L11.8834 28.2297C12.6548 26.946 13.0624 25.4766 13.0625 23.9789V22.9786C13.0625 21.1094 12.5544 19.2753 11.5926 17.6725L11 16.6846V5.1875C11.0011 4.27615 11.3636 3.40245 12.008 2.75803C12.6524 2.11361 13.5261 1.75109 14.4375 1.75H29.5625C30.4738 1.75109 31.3475 2.11361 31.9919 2.75803C32.6364 3.40245 32.9989 4.27615 33 5.1875V14.125C32.4401 14.1225 31.8929 14.2917 31.4321 14.6098C30.9713 14.9279 30.6192 15.3796 30.423 15.904C30.2269 16.4285 30.1962 17.0004 30.3352 17.5428C30.4741 18.0852 30.776 18.572 31.2001 18.9375C30.9021 19.1922 30.6629 19.5085 30.4989 19.8646C30.3349 20.2206 30.2499 20.608 30.2499 21C30.2499 21.392 30.3349 21.7794 30.4989 22.1354C30.6629 22.4915 30.9021 22.8078 31.2001 23.0625C30.9021 23.3172 30.6629 23.6335 30.4989 23.9896C30.3349 24.3456 30.2499 24.733 30.2499 25.125C30.2499 25.517 30.3349 25.9044 30.4989 26.2604C30.6629 26.6165 30.9021 26.9328 31.2001 27.1875C30.776 27.553 30.4741 28.0398 30.3352 28.5822C30.1962 29.1246 30.2269 29.6965 30.423 30.2209C30.6192 30.7454 30.9713 31.1971 31.4321 31.5152C31.8929 31.8333 32.4401 32.0025 33 32V32.6875C32.9989 33.5988 32.6364 34.4725 31.9919 35.117C31.3475 35.7614 30.4738 36.1239 29.5625 36.125H14.4375C13.5261 36.1239 12.6524 35.7614 12.008 35.117C11.3636 34.4725 11.0011 33.5988 11 32.6875V29.25H9.62498V32.6875C9.62643 33.9634 10.1339 35.1866 11.0361 36.0888C11.9383 36.991 13.1616 37.4985 14.4375 37.5H23.0904L19.4514 41.1389L20.4235 42.1111L25.0346 37.5H29.5625C30.8384 37.4985 32.0616 36.991 32.9638 36.0888C33.866 35.1866 34.3735 33.9634 34.375 32.6875V32H35.75C36.3099 32.0025 36.8571 31.8333 37.3178 31.5152C37.7786 31.1971 38.1308 30.7454 38.3269 30.2209C38.5231 29.6965 38.5537 29.1246 38.4148 28.5822C38.2758 28.0398 37.974 27.553 37.5499 27.1875C37.8478 26.9328 38.087 26.6165 38.2511 26.2604C38.4151 25.9044 38.5 25.517 38.5 25.125C38.5 24.733 38.4151 24.3456 38.2511 23.9896C38.087 23.6335 37.8478 23.3172 37.5499 23.0625C37.8469 22.8069 38.0854 22.4905 38.2493 22.1346C38.4133 21.7788 38.4988 21.3918 38.5 21ZM31.625 16.875C31.625 16.5103 31.7698 16.1606 32.0277 15.9027C32.2856 15.6449 32.6353 15.5 33 15.5H35.75C36.1146 15.5 36.4644 15.6449 36.7222 15.9027C36.9801 16.1606 37.125 16.5103 37.125 16.875C37.125 17.2397 36.9801 17.5894 36.7222 17.8473C36.4644 18.1051 36.1146 18.25 35.75 18.25H33C32.6353 18.25 32.2856 18.1051 32.0277 17.8473C31.7698 17.5894 31.625 17.2397 31.625 16.875ZM37.125 29.25C37.125 29.6147 36.9801 29.9644 36.7222 30.2223C36.4644 30.4801 36.1146 30.625 35.75 30.625H33C32.6353 30.625 32.2856 30.4801 32.0277 30.2223C31.7698 29.9644 31.625 29.6147 31.625 29.25C31.625 28.8853 31.7698 28.5356 32.0277 28.2777C32.2856 28.0199 32.6353 27.875 33 27.875H35.75C36.1146 27.875 36.4644 28.0199 36.7222 28.2777C36.9801 28.5356 37.125 28.8853 37.125 29.25ZM37.125 25.125C37.125 25.4897 36.9801 25.8394 36.7222 26.0973C36.4644 26.3551 36.1146 26.5 35.75 26.5H33C32.6353 26.5 32.2856 26.3551 32.0277 26.0973C31.7698 25.8394 31.625 25.4897 31.625 25.125C31.625 24.7603 31.7698 24.4106 32.0277 24.1527C32.2856 23.8949 32.6353 23.75 33 23.75H35.75C36.1146 23.75 36.4644 23.8949 36.7222 24.1527C36.9801 24.4106 37.125 24.7603 37.125 25.125ZM33 22.375C32.6353 22.375 32.2856 22.2301 32.0277 21.9723C31.7698 21.7144 31.625 21.3647 31.625 21C31.625 20.6353 31.7698 20.2856 32.0277 20.0277C32.2856 19.7699 32.6353 19.625 33 19.625H35.75C36.1146 19.625 36.4644 19.7699 36.7222 20.0277C36.9801 20.2856 37.125 20.6353 37.125 21C37.125 21.3647 36.9801 21.7144 36.7222 21.9723C36.4644 22.2301 36.1146 22.375 35.75 22.375H33Z" fill="#377DF6" fill-opacity="0.4"/>
<path d="M17.1875 3.125H18.5625V4.5H17.1875V3.125Z" fill="#377DF6" fill-opacity="0.4"/>
<path d="M19.9375 3.125H24.0625V4.5H19.9375V3.125Z" fill="#377DF6" fill-opacity="0.4"/>
<path d="M20.625 30.625C20.078 30.625 19.5534 30.8423 19.1666 31.2291C18.7798 31.6159 18.5625 32.1405 18.5625 32.6875C18.5625 33.2345 18.7798 33.7591 19.1666 34.1459C19.5534 34.5327 20.078 34.75 20.625 34.75H23.375C23.922 34.75 24.4466 34.5327 24.8334 34.1459C25.2202 33.7591 25.4375 33.2345 25.4375 32.6875C25.4375 32.1405 25.2202 31.6159 24.8334 31.2291C24.4466 30.8423 23.922 30.625 23.375 30.625H20.625ZM24.0625 32.6875C24.0625 32.8698 23.9901 33.0447 23.8611 33.1736C23.7322 33.3026 23.5573 33.375 23.375 33.375H20.625C20.4427 33.375 20.2678 33.3026 20.1389 33.1736C20.0099 33.0447 19.9375 32.8698 19.9375 32.6875C19.9375 32.5052 20.0099 32.3303 20.1389 32.2014C20.2678 32.0724 20.4427 32 20.625 32H23.375C23.5573 32 23.7322 32.0724 23.8611 32.2014C23.9901 32.3303 24.0625 32.5052 24.0625 32.6875Z" fill="#377DF6" fill-opacity="0.4"/>
</g>
<defs>
<clipPath id="clip0_885_203">
<rect width="39" height="43" fill="white"/>
</clipPath>
</defs>
</svg>
